<svg id="Capa_1" enable-background="new 0 0 512 512" height="72" width="72" viewBox="0 0 512 512" xmlns="http://www.w3.org/2000/svg"><g><path d="m40.732 258.897v-229.582c0-5.605 4.544-10.149 10.149-10.149h122.264l26.466 10 26.466-10h122.264c5.605 0 10.149 4.544 10.149 10.149v229.582l-158.878 10z" fill="#4980ac"/><path d="m348.34 19.166h-28.416c5.605 0 10.149 4.544 10.149 10.149v230.583l28.416-1v-229.583c0-5.605-4.544-10.149-10.149-10.149z" fill="#407194"/><g fill="#cde2ff"><path d="m173.145 89.113v-69.947h52.931v69.947c0 2.802-2.272 5.074-5.074 5.074h-42.783c-2.802 0-5.074-2.272-5.074-5.074z"/><path d="m136.972 222.648h-50.413c-4.204 0-7.611-3.408-7.611-7.611 0-4.204 3.408-7.611 7.611-7.611h50.413c4.204 0 7.611 3.408 7.611 7.611.001 4.203-3.407 7.611-7.611 7.611z"/><path d="m136.972 190.52h-50.413c-4.204 0-7.611-3.408-7.611-7.611 0-4.204 3.408-7.611 7.611-7.611h50.413c4.204 0 7.611 3.408 7.611 7.611.001 4.203-3.407 7.611-7.611 7.611z"/></g><g fill="#4980ac"><path d="m297.091 492.834c23.761 0 43.023-19.262 43.023-43.023h-86.047c.001 23.761 19.263 43.023 43.024 43.023z"/><path d="m102.13 492.834c23.761 0 43.023-19.262 43.023-43.023h-86.047c0 23.761 19.262 43.023 43.024 43.023z"/></g><path d="m389.733 310.164v92.44c25.526 0 46.22-20.693 46.22-46.22s-20.693-46.22-46.22-46.22z" fill="#75cff9"/><path d="m0 301.98v141.741c0 5.605 4.544 10.149 10.149 10.149h378.923c5.605 0 10.149-4.544 10.149-10.149v-92.568l-211.523-65.67z" fill="#ffc269"/><path d="m389.072 258.897h-28.416c5.605 0 10.149 4.544 10.149 10.149v174.675c0 5.605-4.544 10.149-10.149 10.149h28.416c5.605 0 10.149-4.544 10.149-10.149v-174.675c0-5.605-4.544-10.149-10.149-10.149z" fill="#ffa95f"/><path d="m389.072 258.897h-378.923c-5.605 0-10.149 4.544-10.149 10.149v32.935h91.578c2.902 0 5.665 1.242 7.591 3.412l37.583 42.348c1.926 2.17 4.689 3.412 7.591 3.412h254.878v-82.107c0-5.605-4.544-10.149-10.149-10.149z" fill="#cde2ff"/><path d="m370.804 269.046v82.107h28.416v-82.107c0-5.605-4.544-10.149-10.149-10.149h-28.416c5.606 0 10.149 4.544 10.149 10.149z" fill="#9ec8fc"/><ellipse cx="337.031" cy="305.025" fill="#4980ac" rx="16.623" ry="16.623" transform="matrix(.099 -.995 .995 .099 .28 610.359)"/><ellipse cx="253.993" cy="305.025" fill="#4980ac" rx="16.623" ry="16.623" transform="matrix(.099 -.995 .995 .099 -74.576 527.726)"/><path d="m163.721 383.299c-3.244 0-5.706 3.014-4.957 6.17 4.392 18.495 21.007 32.254 40.846 32.254s36.454-13.759 40.846-32.254c.749-3.156-1.713-6.17-4.957-6.17z" fill="#ffa95f"/><path d="m490.394 400.297c-1.82 0-3.646-.649-5.102-1.965-3.118-2.819-3.361-7.632-.542-10.751 7.755-8.578 12.026-19.658 12.026-31.198s-4.271-22.62-12.026-31.198c-2.819-3.118-2.577-7.932.542-10.751 3.119-2.82 7.931-2.576 10.751.542 10.29 11.382 15.957 26.088 15.957 41.408s-5.667 30.025-15.957 41.407c-1.502 1.661-3.572 2.506-5.649 2.506z" fill="#cde2ff"/><path d="m460.927 388.625c-2.006 0-4.009-.788-5.504-2.353-2.904-3.04-2.795-7.858.244-10.762 5.277-5.043 8.183-11.834 8.183-19.123 0-7.294-2.906-14.088-8.183-19.129-3.04-2.904-3.149-7.723-.245-10.762 2.905-3.039 7.723-3.148 10.762-.245 8.312 7.942 12.889 18.645 12.889 30.136 0 11.487-4.577 22.187-12.889 30.129-1.474 1.409-3.367 2.109-5.257 2.109z" fill="#cde2ff"/></g></svg>